<?xml version="1.0" encoding="UTF-8" standalone="no"?>
<svg
   xmlns:dc="http://purl.org/dc/elements/1.1/"
   xmlns:cc="http://creativecommons.org/ns#"
   xmlns:rdf="http://www.w3.org/1999/02/22-rdf-syntax-ns#"
   xmlns:svg="http://www.w3.org/2000/svg"
   xmlns="http://www.w3.org/2000/svg"
   xmlns:sodipodi="http://sodipodi.sourceforge.net/DTD/sodipodi-0.dtd"
   xmlns:inkscape="http://www.inkscape.org/namespaces/inkscape"
   width="256"
   height="256"
   viewBox="0 0 67.733332 67.733335"
   version="1.1"
   id="svg8"
   inkscape:version="1.0.2 (e86c870879, 2021-01-15, custom)"
   sodipodi:docname="character.svg"
   inkscape:export-filename="C:\Users\Gauth\Documents\Projets_Godot\DiscoBowl\Project\Art\Character\character_walk_1.png"
   inkscape:export-xdpi="96"
   inkscape:export-ydpi="96">
  <defs
     id="defs2" />
  <sodipodi:namedview
     id="base"
     pagecolor="#ffffff"
     bordercolor="#666666"
     borderopacity="1.0"
     inkscape:pageopacity="0.0"
     inkscape:pageshadow="2"
     inkscape:zoom="3.3242188"
     inkscape:cx="121.98355"
     inkscape:cy="128"
     inkscape:document-units="mm"
     inkscape:current-layer="g31"
     inkscape:document-rotation="0"
     showgrid="true"
     units="px"
     inkscape:pagecheckerboard="true"
     inkscape:window-width="1920"
     inkscape:window-height="1051"
     inkscape:window-x="-9"
     inkscape:window-y="-9"
     inkscape:window-maximized="1">
    <inkscape:grid
       type="xygrid"
       id="grid835"
       dotted="false"
       empspacing="8" />
  </sodipodi:namedview>
  <metadata
     id="metadata5">
    <rdf:RDF>
      <cc:Work
         rdf:about="">
        <dc:format>image/svg+xml</dc:format>
        <dc:type
           rdf:resource="http://purl.org/dc/dcmitype/StillImage" />
        <dc:title />
      </cc:Work>
    </rdf:RDF>
  </metadata>
  <g
     inkscape:label="Tête"
     inkscape:groupmode="layer"
     id="layer1">
    <g
       inkscape:groupmode="layer"
       id="layer3"
       inkscape:label="rest"
       style="display:none">
      <g
         inkscape:groupmode="layer"
         id="g1272"
         inkscape:label="body_rest_0"
         style="display:inline">
        <path
           style="fill:#74e5ff;fill-opacity:1;stroke:#000000;stroke-width:0.79375;stroke-linecap:butt;stroke-linejoin:miter;stroke-miterlimit:4;stroke-dasharray:none;stroke-opacity:1"
           d="M 29.633333,19.05 27.516667,25.4 16.933333,27.516667 12.7,19.05 l -4.2333333,2.116667 6.3500003,12.7 12.7,-2.116667 L 25.4,46.566666 21.166667,65.616667 h 6.35 l 6.35,-19.05 6.35,19.05 h 6.35 l -4.233334,-19.05 L 40.216667,31.75 l 12.7,2.116667 6.35,-12.7 L 55.033333,19.05 50.8,27.516667 40.216667,25.4 38.1,19.05 Z"
           id="path1268"
           sodipodi:nodetypes="cccccccccccccccccccccc" />
      </g>
      <g
         inkscape:groupmode="layer"
         id="layer2"
         inkscape:label="body_rest_1"
         style="display:none">
        <path
           style="fill:#74e5ff;fill-opacity:1;stroke:#000000;stroke-width:0.79375;stroke-linecap:butt;stroke-linejoin:miter;stroke-miterlimit:4;stroke-dasharray:none;stroke-opacity:1"
           d="M 29.633333,19.05 27.516667,25.4 19.05,23.283333 16.933333,14.816667 12.7,16.933333 l 4.233333,12.7 L 27.516667,31.75 25.4,46.566666 21.166667,65.616667 h 6.35 l 6.35,-19.05 6.35,19.05 h 6.35 l -4.233334,-19.05 L 40.216667,31.75 48.683333,38.1 59.266667,31.75 57.15,27.516667 48.683333,31.75 40.216667,25.4 38.1,19.05 Z"
           id="path1256"
           sodipodi:nodetypes="cccccccccccccccccccccc" />
      </g>
      <g
         inkscape:groupmode="layer"
         id="g1279"
         inkscape:label="body_rest_2"
         style="display:none">
        <path
           style="fill:#74e5ff;fill-opacity:1;stroke:#000000;stroke-width:0.79375;stroke-linecap:butt;stroke-linejoin:miter;stroke-miterlimit:4;stroke-dasharray:none;stroke-opacity:1"
           d="m 38.116988,19.05 2.116666,6.35 8.466667,-2.116667 2.116667,-8.466666 4.233333,2.116666 -4.233333,12.7 -10.583334,2.116667 2.116667,14.816666 4.233333,19.050001 h -6.35 l -6.35,-19.05 -6.35,19.05 h -6.35 l 4.233334,-19.05 L 27.533654,31.75 19.066988,38.1 8.4836549,31.75 10.600321,27.516667 19.066988,31.75 27.533654,25.4 29.650321,19.05 Z"
           id="path1277"
           sodipodi:nodetypes="cccccccccccccccccccccc" />
      </g>
    </g>
    <g
       inkscape:groupmode="layer"
       id="layer4"
       inkscape:label="walk">
      <g
         inkscape:groupmode="layer"
         id="g25"
         inkscape:label="walk_0"
         style="display:none">
        <path
           style="fill:#74e5ff;fill-opacity:1;stroke:#000000;stroke-width:0.79375;stroke-linecap:butt;stroke-linejoin:miter;stroke-miterlimit:4;stroke-dasharray:none;stroke-opacity:1"
           d="m 29.633333,19.05 -2.116666,6.35 -12.7,4.233333 L 16.933333,44.45 21.166667,42.333333 19.05,33.866667 27.516667,31.75 25.4,46.566666 21.166667,65.616667 h 6.35 l 6.35,-19.05 10.583333,19.05 h 6.35 l -8.466667,-19.05 L 40.216667,31.75 l 10.583334,8.466667 6.35,-12.7 L 52.916667,25.4 48.683334,33.866667 40.216667,25.4 38.1,19.05 Z"
           id="path23"
           sodipodi:nodetypes="cccccccccccccccccccccc" />
      </g>
      <g
         inkscape:groupmode="layer"
         id="g31"
         inkscape:label="walk_1"
         style="display:inline">
        <path
           style="fill:#74e5ff;fill-opacity:1;stroke:#000000;stroke-width:0.79375;stroke-linecap:butt;stroke-linejoin:miter;stroke-miterlimit:4;stroke-dasharray:none;stroke-opacity:1"
           d="m 29.633333,19.05 -2.116666,6.35 -10.583334,-2.116667 -6.35,12.7 L 14.816667,38.1 19.05,29.633333 27.516667,31.75 25.4,46.566666 16.933333,65.616667 h 6.35 l 10.583334,-19.05 6.35,19.05 h 6.35 l -4.233334,-19.05 L 40.216667,31.75 50.8,35.983333 l 4.233333,-12.7 H 50.8 l -2.116667,6.35 L 40.216667,25.4 38.1,19.05 Z"
           id="path29"
           sodipodi:nodetypes="cccccccccccccccccccccc" />
      </g>
    </g>
    <circle
       style="opacity:0.997;fill:#74e5ff;fill-opacity:1;stroke:#000000;stroke-width:0.79375;stroke-linejoin:round;stroke-miterlimit:4;stroke-dasharray:none;stroke-opacity:1"
       id="path837"
       cx="33.866665"
       cy="10.980208"
       r="10.583333" />
  </g>
</svg>
