<?xml version="1.0" encoding="UTF-8" standalone="no"?>
<svg
   xmlns:dc="http://purl.org/dc/elements/1.1/"
   xmlns:cc="http://creativecommons.org/ns#"
   xmlns:rdf="http://www.w3.org/1999/02/22-rdf-syntax-ns#"
   xmlns:svg="http://www.w3.org/2000/svg"
   xmlns="http://www.w3.org/2000/svg"
   xmlns:sodipodi="http://sodipodi.sourceforge.net/DTD/sodipodi-0.dtd"
   xmlns:inkscape="http://www.inkscape.org/namespaces/inkscape"
   height="256"
   viewBox="0 0 256 256"
   width="256"
   version="1.1"
   id="svg32"
   sodipodi:docname="keyboard.svg"
   inkscape:version="1.0.2 (e86c870879, 2021-01-15, custom)">
  <metadata
     id="metadata38">
    <rdf:RDF>
      <cc:Work
         rdf:about="">
        <dc:format>image/svg+xml</dc:format>
        <dc:type
           rdf:resource="http://purl.org/dc/dcmitype/StillImage" />
        <dc:title></dc:title>
      </cc:Work>
    </rdf:RDF>
  </metadata>
  <defs
     id="defs36" />
  <sodipodi:namedview
     pagecolor="#ffffff"
     bordercolor="#666666"
     borderopacity="1"
     objecttolerance="10"
     gridtolerance="10"
     guidetolerance="10"
     inkscape:pageopacity="0"
     inkscape:pageshadow="2"
     inkscape:window-width="1920"
     inkscape:window-height="1051"
     id="namedview34"
     showgrid="false"
     inkscape:pagecheckerboard="true"
     inkscape:zoom="1.71875"
     inkscape:cx="244.36364"
     inkscape:cy="153.6"
     inkscape:window-x="-9"
     inkscape:window-y="-9"
     inkscape:window-maximized="1"
     inkscape:current-layer="svg32"
     inkscape:document-rotation="0" />
  <g
     id="g30"
     style="fill:#ffffff;fill-opacity:1;stroke-width:1.9375"
     transform="matrix(0.51612903,0,0,0.51612903,-4.1290317,-4.1290317)">
    <path
       d="M 304,288 H 96 a 8,8 0 0 0 -8,8 v 32 a 8,8 0 0 0 8,8 h 208 a 8,8 0 0 0 8,-8 v -32 a 8,8 0 0 0 -8,-8 z m -8,32 H 104 v -16 h 192 z"
       id="path2"
       style="fill:#ffffff;fill-opacity:1;stroke-width:1.9375" />
    <path
       d="m 152,232 a 8,8 0 0 0 -8,8 v 32 a 8,8 0 0 0 8,8 h 32 a 8,8 0 0 0 8,-8 v -32 a 8,8 0 0 0 -8,-8 z m 24,32 h -16 v -16 h 16 z"
       id="path4"
       style="fill:#ffffff;fill-opacity:1;stroke-width:1.9375" />
    <path
       d="m 216,232 a 8,8 0 0 0 -8,8 v 32 a 8,8 0 0 0 8,8 h 32 a 8,8 0 0 0 8,-8 v -32 a 8,8 0 0 0 -8,-8 z m 24,32 h -16 v -16 h 16 z"
       id="path6"
       style="fill:#ffffff;fill-opacity:1;stroke-width:1.9375" />
    <path
       d="M 72,288 H 40 a 8,8 0 0 0 -8,8 v 32 a 8,8 0 0 0 8,8 h 32 a 8,8 0 0 0 8,-8 v -32 a 8,8 0 0 0 -8,-8 z m -8,32 H 48 v -16 h 16 z"
       id="path8"
       style="fill:#ffffff;fill-opacity:1;stroke-width:1.9375" />
    <path
       d="m 360,288 h -32 a 8,8 0 0 0 -8,8 v 32 a 8,8 0 0 0 8,8 h 32 a 8,8 0 0 0 8,-8 v -32 a 8,8 0 0 0 -8,-8 z m -8,32 h -16 v -16 h 16 z"
       id="path10"
       style="fill:#ffffff;fill-opacity:1;stroke-width:1.9375" />
    <path
       d="m 120,280 a 8,8 0 0 0 8,-8 v -32 a 8,8 0 0 0 -8,-8 H 88 a 8,8 0 0 0 -8,8 v 32 a 8,8 0 0 0 8,8 z M 96,248 h 16 v 16 H 96 Z"
       id="path12"
       style="fill:#ffffff;fill-opacity:1;stroke-width:1.9375" />
    <path
       d="m 320,240 a 8,8 0 0 0 -8,-8 h -32 a 8,8 0 0 0 -8,8 v 32 a 8,8 0 0 0 8,8 h 32 a 8,8 0 0 0 8,-8 z m -16,24 h -16 v -16 h 16 z"
       id="path14"
       style="fill:#ffffff;fill-opacity:1;stroke-width:1.9375" />
    <path
       d="m 120,224 h 32 a 8,8 0 0 0 8,-8 v -32 a 8,8 0 0 0 -8,-8 h -32 a 8,8 0 0 0 -8,8 v 32 a 8,8 0 0 0 8,8 z m 8,-32 h 16 v 16 h -16 z"
       id="path16"
       style="fill:#ffffff;fill-opacity:1;stroke-width:1.9375" />
    <path
       d="m 184,224 h 32 a 8,8 0 0 0 8,-8 v -32 a 8,8 0 0 0 -8,-8 h -32 a 8,8 0 0 0 -8,8 v 32 a 8,8 0 0 0 8,8 z m 8,-32 h 16 v 16 h -16 z"
       id="path18"
       style="fill:#ffffff;fill-opacity:1;stroke-width:1.9375" />
    <path
       d="m 56,224 h 32 a 8,8 0 0 0 8,-8 v -32 a 8,8 0 0 0 -8,-8 H 56 a 8,8 0 0 0 -8,8 v 32 a 8,8 0 0 0 8,8 z m 8,-32 h 16 v 16 H 64 Z"
       id="path20"
       style="fill:#ffffff;fill-opacity:1;stroke-width:1.9375" />
    <path
       d="m 248,224 h 32 a 8,8 0 0 0 8,-8 v -32 a 8,8 0 0 0 -8,-8 h -32 a 8,8 0 0 0 -8,8 v 32 a 8,8 0 0 0 8,8 z m 8,-32 h 16 v 16 h -16 z"
       id="path22"
       style="fill:#ffffff;fill-opacity:1;stroke-width:1.9375" />
    <path
       d="m 312,224 h 32 a 8,8 0 0 0 8,-8 v -32 a 8,8 0 0 0 -8,-8 h -32 a 8,8 0 0 0 -8,8 v 32 a 8,8 0 0 0 8,8 z m 8,-32 h 16 v 16 h -16 z"
       id="path24"
       style="fill:#ffffff;fill-opacity:1;stroke-width:1.9375" />
    <path
       d="M 364,152 H 36 A 28.032,28.032 0 0 0 8,180 v 152 a 28.032,28.032 0 0 0 28,28 h 328 a 28.032,28.032 0 0 0 28,-28 V 180 a 28.032,28.032 0 0 0 -28,-28 z m 12,180 a 12.013,12.013 0 0 1 -12,12 H 36 A 12.013,12.013 0 0 1 24,332 V 180 a 12.013,12.013 0 0 1 12,-12 h 328 a 12.013,12.013 0 0 1 12,12 z"
       id="path26"
       style="fill:#ffffff;fill-opacity:1;stroke-width:1.9375" />
    <path
       d="m 456,192 a 48.051,48.051 0 0 0 -48,48 v 48 a 48,48 0 0 0 96,0 v -48 a 48.051,48.051 0 0 0 -48,-48 z m 8,17.01 A 32.12,32.12 0 0 1 486.99,232 H 464 Z m -16,0 V 232 H 425.01 A 32.12,32.12 0 0 1 448,209.01 Z M 488,288 a 32,32 0 0 1 -64,0 v -40 h 64 z"
       id="path28"
       style="fill:#ffffff;fill-opacity:1;stroke-width:1.9375" />
  </g>
</svg>
